<svg width="28" height="25" xmlns="http://www.w3.org/2000/svg"><path d="M26.538 22.22l-1.667-15a1.405 1.405 0 00-1.398-1.251h-4.34a5.156 5.156 0 00-10.267 0h-4.34a1.405 1.405 0 00-1.397 1.25l-1.667 15a1.406 1.406 0 001.398 1.562h22.28a1.406 1.406 0 001.398-1.561zM14 2.219a4.224 4.224 0 014.192 3.75H9.808A4.224 4.224 0 0114 2.219zm11.49 20.468a.463.463 0 01-.35.157H2.86a.469.469 0 01-.466-.521l1.667-15a.468.468 0 01.465-.417h4.318v3.281a.469.469 0 10.937 0v-3.28h8.438v3.28a.469.469 0 10.937 0v-3.28h4.317a.468.468 0 01.466.416l1.667 15a.464.464 0 01-.117.364z"/></svg>