<svg width="36" height="32" xmlns="http://www.w3.org/2000/svg"><path fill-rule="evenodd" clip-rule="evenodd" d="M.21 9.49L5.964.377A.833.833 0 016.243.1c.11-.065.233-.1.358-.1h22.773c.138 0 .274.04.394.119.12.079.22.192.29.33l5.732 9.018c.135.17.21.393.21.624 0 .23-.075.453-.21.624L18.759 31.71a.807.807 0 01-.25.208.697.697 0 01-.604.026.78.78 0 01-.263-.185l-.047-.061L.21 10.72a.71.71 0 01-.09-.133 1.053 1.053 0 01-.12-.485.958.958 0 01.2-.606l.01-.006zm12.991 1.516l4.968 17.133 2.431-8.566 2.431-8.567h-9.83zm11.495 0l-4.673 16.473 13.35-16.473h-8.677zm-8.37 16.521l-4.768-16.521H2.65l13.696 16.521h-.02zM8.106 1.818l4.02 6.703 4.293-6.703H8.107zm11.49 0l4.477 6.703 3.814-6.703h-8.291zm9.814.685L25.59 9.17h8.04l-4.215-6.667h-.005zM22.515 9.17L18 2.424l-4.335 6.752 8.85-.006zm-11.921 0l-4.01-6.667L2.372 9.17h8.223z"/></svg>