<svg width="200" height="160" xmlns="http://www.w3.org/2000/svg"><path d="M60.268 33.671c-2.998-10.157-11.136-9.043-16.7-4.313-13.707 12.661-31.553 39.235-20.131 77.5 9.565 32.418 49.369 53.149 49.369 53.149h-46.4S2.447 133.154.306 101.572c-2.713-39.93 13.28-65.114 31.84-81.53C49.564 4.597 66.126.006 66.126.006l33.878 111 33.878-111s16.562 4.59 33.98 20.034c18.561 16.417 34.553 41.6 31.84 81.531-2.141 31.582-26.1 58.435-26.1 58.435h-46.4s39.8-20.731 49.369-53.149c11.422-38.26-6.424-64.835-20.131-77.5-5.568-4.73-13.706-5.844-16.7 4.313l-39.732 125.3S70.556 66.057 60.276 33.67h-.008z"/></svg>