<svg width="30" height="30" xmlns="http://www.w3.org/2000/svg"><g clip-path="url(#clip0_123_1466)"><path d="M15.408 0C7.184.001 2.812 5.27 2.812 11.015c0 2.664 1.49 5.988 3.873 7.041.68.306.59-.067 1.175-2.305a.531.531 0 00-.128-.521c-3.407-3.941-.665-12.044 7.19-12.044 11.366 0 9.242 15.728 1.977 15.728-1.873 0-3.268-1.47-2.827-3.289.536-2.166 1.583-4.495 1.583-6.056 0-3.935-5.863-3.352-5.863 1.862 0 1.612.57 2.699.57 2.699s-1.886 7.62-2.236 9.044c-.592 2.41.08 6.311.139 6.647.036.185.244.244.36.091.186-.243 2.466-3.496 3.105-5.847.232-.856 1.186-4.331 1.186-4.331.629 1.135 2.441 2.085 4.373 2.085 5.745 0 9.897-5.05 9.897-11.316C27.166 4.494 22.025 0 15.408 0z"/></g><defs><clipPath id="clip0_123_1466"><path d="M0 0h30v30H0z"/></clipPath></defs></svg>