<svg width="18" height="18" xmlns="http://www.w3.org/2000/svg"><path d="M17.663 16.189l-4.726-4.755c-.224-.226-.562-.34-.9-.34.9-1.132 1.463-2.717 1.463-4.302C13.5 3.057 10.463 0 6.75 0 3.038 0 0 3.057 0 6.792c0 3.736 3.038 6.793 6.75 6.793 1.575 0 3.15-.566 4.275-1.585 0 .34 0 .68.338.906l4.724 4.754c.226.227.563.34.788.34.225 0 .563-.113.788-.34.45-.34.45-1.018 0-1.471zM6.75 11.887c-2.813 0-5.063-2.264-5.063-5.095 0-2.83 2.25-5.094 5.063-5.094 2.813 0 5.063 2.264 5.063 5.094 0 2.83-2.25 5.095-5.063 5.095z"/></svg>