<svg width="30" height="31" xmlns="http://www.w3.org/2000/svg"><path d="M24.894 17.676c-.485-.612-.346-.885 0-1.432.006-.006 4.01-5.539 4.422-7.415l.003-.001c.205-.684 0-1.187-.991-1.187h-3.28c-.835 0-1.22.432-1.427.914 0 0-1.67 3.998-4.032 6.589-.763.749-1.115.989-1.531.989-.206 0-.524-.24-.524-.924V8.828c0-.82-.234-1.187-.925-1.187H11.45c-.524 0-.835.383-.835.74 0 .777 1.181.955 1.304 3.143v4.746c0 1.04-.189 1.231-.607 1.231-1.116 0-3.822-4.013-5.426-8.607-.323-.891-.64-1.251-1.48-1.251H1.124c-.936 0-1.125.43-1.125.913 0 .853 1.115 5.092 5.185 10.692 2.713 3.822 6.532 5.893 10.008 5.893 2.088 0 2.343-.46 2.343-1.25 0-3.653-.189-3.998.858-3.998.485 0 1.32.24 3.27 2.083 2.228 2.187 2.595 3.165 3.842 3.165h3.28c.935 0 1.409-.46 1.136-1.367-.623-1.909-4.838-5.835-5.028-6.098z"/></svg>