<svg width="20" height="20" fill="none" xmlns="http://www.w3.org/2000/svg"><path d="M15.219 4.818L14.289 0 9.698 3.578 5.105 0l-.88 4.561-1.807-.834v8.691c0 .458.041.906.119 1.34C3.172 17.303 6.277 20 10 20c3.397 0 6.279-2.245 7.24-5.33a7.498 7.498 0 00.341-2.252V3.727l-2.362 1.09zm.05 2.524v2.317l-2.51-1.158 2.51-1.16zm-10.538 0l10.538 4.865v.211A5.275 5.275 0 0110 17.688a5.275 5.275 0 01-5.269-5.27V7.342zm8.002-3.198l.323 1.672L10 7.226l-.768-.354 3.501-2.728zm-6.072 0l1.155.9-.947.737-.48-.221.272-1.416z" fill="#ed143d"/></svg>