<svg width="25" height="22" fill="none" xmlns="http://www.w3.org/2000/svg"><path d="M24.375 15.125h-.625V10.48c0-.546-.2-1.07-.55-1.457l-3.903-4.292a1.793 1.793 0 00-1.324-.606H16.25V2.062C16.25.925 15.41 0 14.375 0h-10C3.34 0 2.5.924 2.5 2.063v2.062H.312c-.171 0-.312.155-.312.344v.687c0 .19.14.344.313.344h10.624c.172 0 .313.155.313.344v.687c0 .19-.14.344-.313.344H1.563c-.172 0-.313.155-.313.344v.687c0 .19.14.344.313.344h8.124c.172 0 .313.155.313.344v.687c0 .19-.14.344-.313.344H.313C.14 9.625 0 9.78 0 9.969v.687c0 .19.14.344.313.344h8.124c.172 0 .313.155.313.344v.687c0 .19-.14.344-.313.344H2.5v5.5C2.5 20.152 4.18 22 6.25 22 8.32 22 10 20.152 10 17.875h5C15 20.152 16.68 22 18.75 22c2.07 0 3.75-1.848 3.75-4.125h1.875c.344 0 .625-.31.625-.688v-1.375c0-.378-.281-.687-.625-.687zM6.25 19.938c-1.035 0-1.875-.924-1.875-2.063 0-1.139.84-2.063 1.875-2.063 1.035 0 1.875.924 1.875 2.063 0 1.139-.84 2.063-1.875 2.063zm12.5 0c-1.035 0-1.875-.924-1.875-2.063 0-1.139.84-2.063 1.875-2.063 1.035 0 1.875.924 1.875 2.063 0 1.139-.84 2.063-1.875 2.063zM21.875 11H16.25V6.187h1.723l3.902 4.293V11z" fill="#6E57CF"/></svg>