<svg width="15" height="15" fill="none" xmlns="http://www.w3.org/2000/svg"><path d="M8.73 3.985a3.142 3.142 0 00-1.268.864c-.554-.627-1.23-.85-1.269-.864a.595.595 0 00-.747.383c-.102.31.068.65.378.756.033.012.791.278 1.07 1.072a.598.598 0 00.565.402c.243 0 .51-.211.577-.402.273-.79 1.026-1.057 1.067-1.072a.597.597 0 00.383-.75.603.603 0 00-.755-.39z" fill="#333"/><path d="M11.985 6.55a7.11 7.11 0 00.777-5.299c-.08-.325-.325-.422-.812-.422-.665 0-1.26.404-1.83.744a3.365 3.365 0 00-5.24.003c-.57-.34-1.145-.744-1.83-.744-.43 0-.736.106-.812.419a7.083 7.083 0 00.777 5.3 6.684 6.684 0 003.887 3.053v2.373l-2.1-1.4a.598.598 0 00-.662.995l2.762 1.84v.668c0 .331.267.598.598.598a.596.596 0 00.598-.598v-.668l2.762-1.84a.6.6 0 00-.662-.996l-2.1 1.398V9.6c1.632-.478 3.003-1.55 3.887-3.05zm-7.94-.606c-.688-1.136-.937-2.475-.758-3.8.501.176.976.422 1.412.742.14.102.32.137.487.1a.583.583 0 00.392-.305 2.165 2.165 0 013.838 0 .614.614 0 00.393.304c.17.038.345.003.486-.1a5.416 5.416 0 011.412-.74 5.995 5.995 0 01-.759 3.8c-1.758 3.07-5.039 3.078-6.902 0z" fill="#333"/></svg>