<svg width="15" height="204" fill="none" xmlns="http://www.w3.org/2000/svg"><path d="M6.695 63.522L4.865 67.4l-4.097.624c-.734.111-1.029 1.058-.496 1.6l2.964 3.017-.701 4.262c-.127.77.65 1.347 1.3.987L7.5 75.878l3.665 2.012c.65.358 1.427-.217 1.3-.987l-.7-4.262 2.963-3.017c.533-.542.238-1.489-.496-1.6l-4.096-.624-1.831-3.878a.881.881 0 00-1.61 0z" fill="#2F2F2F"/><path d="M6.695 126.522l-1.83 3.878-4.097.624c-.734.111-1.029 1.058-.496 1.6l2.964 3.017-.701 4.262c-.127.77.65 1.347 1.3.987l3.665-2.012 3.665 2.012c.65.358 1.427-.217 1.3-.987l-.7-4.262 2.963-3.017c.533-.542.238-1.489-.496-1.6l-4.096-.624-1.831-3.878a.881.881 0 00-1.61 0zm0-21l-1.83 3.878-4.097.624c-.734.111-1.029 1.058-.496 1.6l2.964 3.017-.701 4.262c-.127.77.65 1.347 1.3.987l3.665-2.012 3.665 2.012c.65.358 1.427-.217 1.3-.987l-.7-4.262 2.963-3.017c.533-.542.238-1.489-.496-1.6l-4.096-.624-1.831-3.878a.881.881 0 00-1.61 0zm0 63l-1.83 3.878-4.097.624c-.734.111-1.029 1.058-.496 1.6l2.964 3.017-.701 4.262c-.127.77.65 1.347 1.3.987l3.665-2.012 3.665 2.012c.65.358 1.427-.217 1.3-.987l-.7-4.262 2.963-3.017c.533-.542.238-1.489-.496-1.6l-4.096-.624-1.831-3.878a.881.881 0 00-1.61 0zm0-21l-1.83 3.878-4.097.624c-.734.111-1.029 1.058-.496 1.6l2.964 3.017-.701 4.262c-.127.77.65 1.347 1.3.987l3.665-2.012 3.665 2.012c.65.358 1.427-.217 1.3-.987l-.7-4.262 2.963-3.017c.533-.542.238-1.489-.496-1.6l-4.096-.624-1.831-3.878a.881.881 0 00-1.61 0z" fill="#F79032"/><path d="M6.695 84.522L4.865 88.4l-4.097.624c-.734.111-1.029 1.058-.496 1.6l2.964 3.017-.701 4.262c-.127.77.65 1.347 1.3.987L7.5 96.878l3.665 2.012c.65.358 1.427-.217 1.3-.987l-.7-4.262 2.963-3.017c.533-.542.238-1.489-.496-1.6l-4.096-.624-1.831-3.878a.881.881 0 00-1.61 0zm0-84L4.865 4.4l-4.097.624c-.734.111-1.029 1.058-.496 1.6L3.236 9.64l-.701 4.262c-.127.77.65 1.347 1.3.987L7.5 12.878l3.665 2.012c.65.357 1.427-.217 1.3-.987l-.7-4.262 2.963-3.017c.533-.542.238-1.489-.496-1.6L10.136 4.4 8.305.522a.881.881 0 00-1.61 0z" fill="#2F2F2F"/><path d="M6.695 189.522l-1.83 3.878-4.097.624c-.734.111-1.029 1.058-.496 1.6l2.964 3.017-.701 4.262c-.127.77.65 1.347 1.3.987l3.665-2.012 3.665 2.012c.65.358 1.427-.217 1.3-.987l-.7-4.262 2.963-3.017c.533-.542.238-1.489-.496-1.6l-4.096-.624-1.831-3.878a.881.881 0 00-1.61 0z" fill="#F79032"/><path d="M6.695 42.522L4.865 46.4l-4.097.624c-.734.111-1.029 1.058-.496 1.6l2.964 3.017-.701 4.262c-.127.77.65 1.347 1.3.987L7.5 54.878l3.665 2.012c.65.358 1.427-.217 1.3-.987l-.7-4.262 2.963-3.017c.533-.542.238-1.489-.496-1.6l-4.096-.624-1.831-3.878a.881.881 0 00-1.61 0zm0-21L4.865 25.4l-4.097.624c-.734.111-1.029 1.058-.496 1.6l2.964 3.017-.701 4.262c-.127.77.65 1.347 1.3.987L7.5 33.878l3.665 2.012c.65.358 1.427-.217 1.3-.987l-.7-4.262 2.963-3.017c.533-.542.238-1.488-.496-1.6l-4.096-.624-1.831-3.878a.881.881 0 00-1.61 0z" fill="#2F2F2F"/></svg>