<svg width="220" height="18" fill="none" xmlns="http://www.w3.org/2000/svg"><path fill-rule="evenodd" clip-rule="evenodd" d="M99.147 1.384l1.998 4.972 5.118.463c.355.032.5.497.231.742l-3.882 3.535 1.163 5.258c.081.364-.296.652-.601.458l-4.398-2.787-4.398 2.787c-.305.193-.681-.094-.6-.458l1.162-5.258-3.882-3.535c-.27-.245-.126-.711.23-.742l5.118-.463 1.998-4.972a.397.397 0 01.743 0v0zm-89.796 0l1.998 4.972 5.119.463c.354.032.499.497.23.742l-3.882 3.535 1.163 5.258c.08.364-.296.652-.602.458L8.98 14.025l-4.398 2.787c-.305.193-.681-.094-.6-.458l1.162-5.258L1.263 7.56c-.27-.245-.127-.711.229-.742l5.118-.463 1.998-4.972a.397.397 0 01.743 0v0zm22.45 0l1.997 4.972 5.118.463c.355.032.5.497.23.742l-3.88 3.535 1.162 5.258c.08.364-.296.652-.6.458l-4.4-2.787-4.397 2.787c-.305.193-.681-.094-.6-.458l1.162-5.258-3.881-3.535c-.27-.245-.127-.711.229-.742l5.118-.463 1.998-4.972a.397.397 0 01.743 0v0zm22.448 0l1.998 4.972 5.118.463c.355.032.5.497.23.742l-3.88 3.535 1.162 5.258c.08.364-.296.652-.6.458l-4.4-2.787-4.397 2.787c-.305.193-.681-.094-.6-.458l1.162-5.258L46.16 7.56c-.27-.245-.126-.711.23-.742l5.118-.463 1.998-4.972a.397.397 0 01.743 0v0zm22.45 0l1.997 4.972 5.118.463c.355.032.5.497.23.742l-3.88 3.535 1.162 5.258c.08.364-.296.652-.6.458l-4.4-2.787-4.397 2.787c-.305.193-.681-.094-.6-.458l1.162-5.258L68.61 7.56c-.27-.245-.126-.711.23-.742l5.118-.463 1.998-4.972a.397.397 0 01.743 0v0z" fill="#6E57CF" stroke="#6E57CF"/><path d="M211.392 1.384l1.999 4.972 5.117.463c.355.032.5.497.23.742l-3.881 3.535 1.163 5.258c.081.364-.296.652-.602.458l-4.398-2.787-4.397 2.787c-.306.193-.682-.094-.601-.458l1.163-5.258-3.881-3.535c-.27-.245-.127-.711.229-.742l5.117-.463 1.999-4.972a.398.398 0 01.371-.26.399.399 0 01.372.26v0zm-89.796 0l1.999 4.972 5.117.463c.355.032.5.497.231.742l-3.882 3.535 1.163 5.258c.081.364-.296.652-.602.458l-4.397-2.787-4.398 2.787c-.305.193-.682-.094-.601-.458l1.163-5.258-3.881-3.535c-.27-.245-.127-.711.229-.742l5.117-.463 1.999-4.972a.398.398 0 01.372-.26.398.398 0 01.371.26v0zm22.449 0l1.999 4.972 5.117.463c.355.032.5.497.231.742l-3.882 3.535 1.163 5.258c.081.364-.296.652-.602.458l-4.397-2.787-4.398 2.787c-.306.193-.682-.094-.601-.458l1.163-5.258-3.881-3.535c-.27-.245-.127-.711.229-.742l5.117-.463 1.999-4.972a.398.398 0 01.372-.26.398.398 0 01.371.26v0zm22.449 0l1.999 4.972 5.117.463c.355.032.5.497.23.742l-3.881 3.535 1.163 5.258c.081.364-.296.652-.602.458l-4.397-2.787-4.398 2.787c-.306.193-.682-.094-.601-.458l1.163-5.258-3.881-3.535c-.27-.245-.127-.711.229-.742l5.117-.463 1.999-4.972a.398.398 0 01.372-.26.398.398 0 01.371.26v0zm22.449 0l1.999 4.972 5.117.463c.355.032.5.497.23.742l-3.881 3.535 1.163 5.258c.081.364-.296.652-.602.458l-4.398-2.787-4.397 2.787c-.306.193-.682-.094-.601-.458l1.163-5.258-3.881-3.535c-.27-.245-.127-.711.229-.742l5.117-.463 1.999-4.972a.398.398 0 01.371-.26.399.399 0 01.372.26v0z" stroke="#6E57CF"/></svg>