<?xml version="1.0" standalone="no"?>
<!DOCTYPE svg PUBLIC "-//W3C//DTD SVG 20010904//EN"
 "http://www.w3.org/TR/2001/REC-SVG-20010904/DTD/svg10.dtd">
<svg version="1.0" xmlns="http://www.w3.org/2000/svg"
 width="256.000000pt" height="256.000000pt" viewBox="0 0 256.000000 256.000000"
 preserveAspectRatio="xMidYMid meet">
<metadata>
Created by potrace 1.14, written by Peter Selinger 2001-2017
</metadata>
<g transform="translate(0.000000,256.000000) scale(0.100000,-0.100000)"
fill="#000000" stroke="none">
<path d="M1264 2514 c-102 -99 -205 -246 -248 -354 -41 -103 -57 -180 -37
-180 15 0 124 -111 167 -170 23 -30 62 -98 88 -150 53 -105 53 -105 53 -88 0
7 4 74 8 148 4 74 8 145 8 158 2 43 17 21 18 -25 0 -27 3 -66 5 -88 2 -22 5
-122 6 -222 1 -101 5 -183 10 -183 14 0 147 131 182 179 18 25 46 71 61 101
14 30 31 62 35 72 5 9 17 53 26 99 28 138 4 287 -65 414 -53 96 -109 172 -189
256 l-78 81 -50 -48z m53 -596 c-3 -8 -6 -5 -6 6 -1 11 2 17 5 13 3 -3 4 -12
1 -19z"/>
<path d="M405 2023 c-39 -5 -169 -31 -218 -44 -42 -11 -41 -5 -23 -94 27 -135
154 -373 244 -459 l30 -28 79 30 c43 16 101 33 128 37 69 11 213 13 253 4 17
-4 32 -3 32 1 0 4 -61 48 -136 99 -74 50 -132 91 -128 91 4 0 43 -20 88 -44
217 -117 475 -241 483 -232 9 9 -60 194 -98 265 -41 76 -118 180 -161 216
-101 85 -183 125 -313 150 -36 7 -217 12 -260 8z"/>
<path d="M1905 1933 c-11 -2 -49 -13 -85 -23 -65 -19 -66 -20 -68 -57 -8 -112
-62 -254 -134 -350 -21 -29 -36 -53 -33 -53 2 0 62 23 132 51 71 28 146 57
168 65 36 12 38 12 21 -1 -11 -8 -23 -15 -27 -15 -5 0 -34 -15 -66 -34 -32
-18 -98 -55 -148 -81 -174 -92 -220 -118 -254 -143 l-34 -26 53 -17 c115 -37
248 -57 364 -54 104 2 173 19 266 63 96 46 223 171 293 288 56 95 117 232 120
270 2 24 -4 30 -56 50 -119 47 -225 67 -362 69 -71 2 -139 1 -150 -2z"/>
<path d="M672 1378 c-216 -32 -403 -197 -537 -473 -70 -143 -71 -136 27 -173
107 -41 167 -58 253 -72 82 -14 244 -15 257 -2 5 5 11 22 14 38 19 107 59 203
129 304 l54 79 -32 -11 c-18 -5 -69 -24 -115 -40 -46 -16 -86 -27 -89 -24 -4
3 -1 6 5 6 30 0 317 152 357 188 24 23 66 57 95 78 28 20 48 40 43 44 -10 9
-150 46 -213 56 -64 10 -186 11 -248 2z"/>
<path d="M1124 1188 c-127 -96 -232 -215 -293 -336 -62 -123 -78 -286 -41
-427 36 -134 120 -308 192 -398 l23 -28 73 51 c153 107 278 246 337 375 52
112 53 128 10 177 -71 83 -175 338 -175 429 0 66 -18 18 -68 -183 -50 -196
-79 -296 -67 -228 2 14 9 66 15 115 13 102 18 147 25 190 2 17 7 57 11 90 3
33 12 97 18 143 7 45 11 82 11 82 -1 0 -33 -23 -71 -52z"/>
<path d="M1324 1152 c3 -20 8 -58 11 -83 3 -25 14 -81 26 -124 80 -309 276
-482 599 -531 57 -8 245 -13 286 -7 l32 5 -5 76 c-3 70 -12 137 -28 217 -12
58 -57 181 -88 238 -17 32 -58 88 -92 125 l-61 65 -65 -13 c-73 -15 -257 -20
-309 -9 -113 24 -113 27 -9 -78 235 -240 235 -241 -6 -48 -115 93 -215 172
-222 177 -6 5 -25 13 -43 18 l-32 9 6 -37z"/>
</g>
</svg>
