<svg width="18" height="30" viewBox="0 0 18 30"  xmlns="http://www.w3.org/2000/svg">
<path d="M17.4816 16.2351C17.6415 16.0975 17.7722 15.9134 17.8625 15.6986C17.9528 15.4837 18 15.2447 18 15.002C18 14.7594 17.9528 14.5203 17.8625 14.3055C17.7722 14.0907 17.6415 13.9066 17.4816 13.7689L1.88267 0.26788C1.70275 0.111605 1.49202 0.019964 1.27336 0.00290918C1.0547 -0.0141456 0.83649 0.0440394 0.642429 0.171144C0.448367 0.29825 0.285878 0.489412 0.172618 0.723863C0.0593576 0.958314 -0.000343589 1.22709 1.48748e-06 1.50098L9 15.002L1.48748e-06 28.5031C0.000904316 28.7763 0.0613732 29.0441 0.174905 29.2776C0.288437 29.5111 0.450736 29.7015 0.644349 29.8283C0.837962 29.9552 1.05556 30.0136 1.27375 29.9973C1.49194 29.9811 1.70246 29.8908 1.88267 29.7362L17.4816 16.2351Z"/>
</svg>
