<svg width="28" height="25" viewBox="0 0 28 25" xmlns="http://www.w3.org/2000/svg">
<path d="M26.5375 22.2196L24.871 7.21957C24.8331 6.87548 24.6695 6.55751 24.4115 6.32664C24.1536 6.09578 23.8195 5.96827 23.4733 5.96859H19.1339C19.017 4.68774 18.4255 3.49683 17.4757 2.62967C16.5258 1.76251 15.286 1.28174 13.9999 1.28174C12.7137 1.28174 11.474 1.76251 10.5241 2.62967C9.57419 3.49683 8.98276 4.68774 8.86588 5.96859H4.52643C4.18026 5.96827 3.84616 6.09578 3.58822 6.32664C3.33027 6.55751 3.16665 6.87548 3.12874 7.21957L1.46221 22.2196C1.44038 22.4161 1.46024 22.6151 1.52052 22.8034C1.58079 22.9918 1.68012 23.1653 1.81201 23.3127C1.9439 23.46 2.10539 23.5779 2.28594 23.6586C2.46648 23.7394 2.66202 23.7811 2.85979 23.7811H25.1398C25.3376 23.7811 25.5332 23.7394 25.7137 23.6587C25.8943 23.578 26.0558 23.4601 26.1877 23.3127C26.3196 23.1654 26.4189 22.9918 26.4792 22.8035C26.5395 22.6151 26.5594 22.4161 26.5375 22.2196ZM13.9999 2.21859C15.0371 2.21998 16.0376 2.60294 16.8107 3.2945C17.5838 3.98607 18.0754 4.93789 18.1919 5.96859H9.80784C9.92432 4.93789 10.4159 3.98607 11.189 3.2945C11.9621 2.60294 12.9626 2.21998 13.9999 2.21859ZM25.4892 22.6875C25.4454 22.7369 25.3917 22.7764 25.3314 22.8033C25.2712 22.8302 25.2059 22.844 25.1399 22.8436H2.85979C2.79387 22.8436 2.72869 22.8297 2.66851 22.8028C2.60833 22.7759 2.5545 22.7366 2.51054 22.6874C2.46658 22.6383 2.43348 22.5805 2.41339 22.5177C2.3933 22.4549 2.38669 22.3886 2.39397 22.323L4.06061 7.32305C4.07326 7.20837 4.12779 7.1024 4.21375 7.02545C4.29972 6.94851 4.41106 6.90601 4.52643 6.90609H8.84362V10.1873C8.84362 10.3117 8.893 10.4309 8.98091 10.5188C9.06882 10.6067 9.18805 10.6561 9.31237 10.6561C9.43669 10.6561 9.55592 10.6067 9.64383 10.5188C9.73173 10.4309 9.78112 10.3117 9.78112 10.1873V6.90609H18.2186V10.1873C18.2186 10.3117 18.268 10.4309 18.3559 10.5188C18.4438 10.6067 18.563 10.6561 18.6874 10.6561C18.8117 10.6561 18.9309 10.6067 19.0188 10.5188C19.1067 10.4309 19.1561 10.3117 19.1561 10.1873V6.90609H23.4733C23.5887 6.90601 23.7 6.94851 23.786 7.02545C23.8719 7.1024 23.9265 7.20837 23.9391 7.32305L25.6058 22.323C25.6134 22.3886 25.607 22.455 25.5869 22.5179C25.5667 22.5807 25.5334 22.6386 25.4892 22.6875Z" />
</svg>
