<svg width="36" height="32" viewBox="0 0 36 32"  xmlns="http://www.w3.org/2000/svg">
<path fill-rule="evenodd" clip-rule="evenodd" d="M0.210796 9.49088L5.96331 0.375765C6.03633 0.259805 6.13212 0.165328 6.24289 0.100031C6.35366 0.0347337 6.47626 0.000462549 6.60072 9.28346e-06H29.3737C29.512 -0.000709573 29.648 0.0403314 29.7682 0.119032C29.8884 0.197732 29.9885 0.311336 30.0586 0.448492L35.79 9.46664C35.9251 9.63738 36 9.85998 36 10.0909C36 10.3218 35.9251 10.5444 35.79 10.7151C35.79 10.7151 18.8295 31.6214 18.759 31.709C18.6884 31.7965 18.6036 31.8672 18.5093 31.9171C18.4149 31.9669 18.313 31.9948 18.2093 31.9994C18.1056 32.0039 18.0021 31.9848 17.9048 31.9433C17.8075 31.9018 17.7183 31.8387 17.6422 31.7575L17.5948 31.6969L0.210796 10.7212C0.176482 10.681 0.146423 10.6362 0.121243 10.5878C0.043431 10.4418 0.00155325 10.2743 8.21949e-05 10.103C-0.00277259 9.87901 0.0688302 9.66222 0.20026 9.49694L0.210796 9.49088ZM13.2014 11.006L18.169 28.1393L20.6001 19.5727L23.0312 11.006H13.2014ZM24.6959 11.006L20.0233 27.4787L33.3721 11.006H24.6959ZM16.3252 27.5272L11.5578 11.006H2.64982L16.3463 27.5272H16.3252ZM8.10734 1.81818L12.1267 8.52119L16.42 1.81818H8.10734ZM19.5966 1.81818L24.0743 8.52119L27.8882 1.81818H19.5966ZM29.4106 2.50303L25.5914 9.16967H33.6302L29.4159 2.50303H29.4106ZM22.515 9.16967L18.0004 2.42424L13.6649 9.17573L22.515 9.16967ZM10.5938 9.16967L6.58492 2.50303L2.37062 9.16967H10.5938Z" />
</svg>
