<svg width="200" height="160" viewBox="0 0 200 160"  xmlns="http://www.w3.org/2000/svg">
<path d="M60.2677 33.6712C57.2697 23.5144 49.1318 24.6276 43.5677 29.3582C29.8614 42.019 12.0148 68.5932 23.4368 106.858C33.0025 139.276 72.8058 160.007 72.8058 160.007H26.4058C26.4058 160.007 2.4475 133.154 0.305777 101.572C-2.40682 61.6414 13.5851 36.4583 32.1457 20.0414C49.5639 4.59774 66.1257 0.0065918 66.1257 0.0065918L100.004 111.007L133.882 0.0065918C133.882 0.0065918 150.444 4.59775 167.862 20.0414C186.423 36.4583 202.415 61.6414 199.702 101.572C197.561 133.154 173.602 160.007 173.602 160.007H127.202C127.202 160.007 167.002 139.276 176.571 106.858C187.993 68.5975 170.147 42.0233 156.44 29.3582C150.872 24.6276 142.734 23.5144 139.74 33.6712C129.461 66.0886 100.008 158.971 100.008 158.971C100.008 158.971 70.5558 66.0576 60.2761 33.6712H60.2677Z" />
</svg>
