<svg width="30" height="30" viewBox="0 0 30 30"  xmlns="http://www.w3.org/2000/svg">
<g clip-path="url(#clip0_123_1466)">
<path d="M15.4075 0C7.18374 0.00125 2.81249 5.27 2.81249 11.015C2.81249 13.6788 4.30124 17.0025 6.68499 18.0562C7.36499 18.3625 7.27499 17.9888 7.85999 15.7513C7.90624 15.565 7.88249 15.4038 7.73249 15.23C4.32499 11.2887 7.06749 3.18625 14.9212 3.18625C26.2875 3.18625 24.1637 18.9138 16.8987 18.9138C15.0262 18.9138 13.6312 17.4438 14.0725 15.625C14.6075 13.4588 15.655 11.13 15.655 9.56875C15.655 5.63375 9.79249 6.2175 9.79249 11.4313C9.79249 13.0425 10.3625 14.13 10.3625 14.13C10.3625 14.13 8.47624 21.75 8.12624 23.1737C7.53374 25.5838 8.20624 29.485 8.26499 29.8213C8.30124 30.0063 8.50874 30.065 8.62499 29.9125C8.81124 29.6688 11.0912 26.4163 11.73 24.065C11.9625 23.2088 12.9162 19.7337 12.9162 19.7337C13.545 20.8688 15.3575 21.8188 17.2887 21.8188C23.0337 21.8188 27.1862 16.7688 27.1862 10.5025C27.1662 4.495 22.025 0 15.4075 0Z" />
</g>
<defs>
<clipPath id="clip0_123_1466">
<rect width="30" height="30" />
</clipPath>
</defs>
</svg>
