<svg width="22" height="22" viewBox="0 0 22 22"  xmlns="http://www.w3.org/2000/svg">
<path d="M8.93213 1.375C7.8042 1.375 6.875 2.3042 6.875 3.43213V4.125H2.75V5.5H4.125V17.1875C4.125 18.3262 5.04883 19.25 6.1875 19.25H14.4375C15.5762 19.25 16.5 18.3262 16.5 17.1875V5.5H17.875V4.125H13.75V3.43213C13.75 2.3042 12.8208 1.375 11.6929 1.375H8.93213ZM8.93213 2.75H11.6929C12.0796 2.75 12.375 3.04541 12.375 3.43213V4.125H8.25V3.43213C8.25 3.04541 8.54541 2.75 8.93213 2.75ZM6.875 6.875H8.25V16.5H6.875V6.875ZM9.625 6.875H11V16.5H9.625V6.875ZM12.375 6.875H13.75V16.5H12.375V6.875Z" />
</svg>
