<svg width="30" height="31" viewBox="0 0 30 31" xmlns="http://www.w3.org/2000/svg">
<path d="M24.8937 17.6764C24.4087 17.0639 24.5475 16.7914 24.8937 16.2439C24.9 16.2376 28.9037 10.7051 29.3162 8.82886L29.3187 8.82761C29.5237 8.14386 29.3187 7.64136 28.3275 7.64136H25.0475C24.2125 7.64136 23.8275 8.07261 23.6212 8.55511C23.6212 8.55511 21.9512 12.5526 19.5887 15.1439C18.8262 15.8926 18.4737 16.1326 18.0575 16.1326C17.8525 16.1326 17.5337 15.8926 17.5337 15.2089V8.82761C17.5337 8.00761 17.3 7.64136 16.6087 7.64136H11.4512C10.9275 7.64136 10.6162 8.02386 10.6162 8.38011C10.6162 9.15761 11.7975 9.33636 11.92 11.5239V16.2701C11.92 17.3101 11.7312 17.5014 11.3125 17.5014C10.1975 17.5014 7.49125 13.4876 5.8875 8.89386C5.56375 8.00261 5.2475 7.64261 4.40625 7.64261H1.125C0.18875 7.64261 0 8.07386 0 8.55636C0 9.40886 1.115 13.6476 5.185 19.2476C7.8975 23.0701 11.7175 25.1414 15.1925 25.1414C17.2812 25.1414 17.5362 24.6814 17.5362 23.8901C17.5362 20.2376 17.3475 19.8926 18.3937 19.8926C18.8787 19.8926 19.7137 20.1326 21.6637 21.9764C23.8925 24.1626 24.2587 25.1414 25.5062 25.1414H28.7862C29.7212 25.1414 30.195 24.6814 29.9225 23.7739C29.2987 21.8651 25.0837 17.9389 24.8937 17.6764V17.6764Z" />
</svg>
