<svg width="20" height="20" viewBox="0 0 20 20" fill="none" xmlns="http://www.w3.org/2000/svg">
<path d="M15.2186 4.81765L14.2897 0L9.69747 3.57766L5.10524 0L4.22559 4.56108L2.41833 3.72676V10.727V12.4184C2.41833 12.8757 2.45904 13.3236 2.53698 13.7587C3.17163 17.3022 6.27662 19.9999 9.99992 19.9999C13.3966 19.9999 16.2787 17.7547 17.24 14.6704C17.314 14.4332 17.3766 14.191 17.4272 13.9444C17.5283 13.4513 17.5814 12.941 17.5814 12.4184V3.72676L15.2186 4.81765ZM15.2687 7.34189V9.6592L12.7589 8.50055L15.2687 7.34189ZM4.73118 7.34189L15.2687 12.2067V12.4184C15.2687 15.3237 12.9052 17.6872 9.99999 17.6872C7.09475 17.6872 4.73118 15.3237 4.73118 12.4184V7.34189ZM12.7333 4.14431L13.0557 5.81618L9.99992 7.22686L9.23174 6.87223L12.7333 4.14431ZM6.6614 4.14431L7.81574 5.04362L6.86879 5.78134L6.38849 5.55961L6.6614 4.14431Z" fill="#ed143d"/>
</svg>
