<svg width="25" height="22" viewBox="0 0 25 22" fill="none" xmlns="http://www.w3.org/2000/svg">
<path d="M24.375 15.125H23.75V10.4801C23.75 9.93437 23.5508 9.41016 23.1992 9.02344L19.2969 4.73086C18.9453 4.34414 18.4688 4.125 17.9727 4.125H16.25V2.0625C16.25 0.923828 15.4102 0 14.375 0H4.375C3.33984 0 2.5 0.923828 2.5 2.0625V4.125H0.3125C0.140625 4.125 0 4.27969 0 4.46875V5.15625C0 5.34531 0.140625 5.5 0.3125 5.5H10.9375C11.1094 5.5 11.25 5.65469 11.25 5.84375V6.53125C11.25 6.72031 11.1094 6.875 10.9375 6.875H1.5625C1.39062 6.875 1.25 7.02969 1.25 7.21875V7.90625C1.25 8.09531 1.39062 8.25 1.5625 8.25H9.6875C9.85938 8.25 10 8.40469 10 8.59375V9.28125C10 9.47031 9.85938 9.625 9.6875 9.625H0.3125C0.140625 9.625 0 9.77969 0 9.96875V10.6562C0 10.8453 0.140625 11 0.3125 11H8.4375C8.60938 11 8.75 11.1547 8.75 11.3438V12.0312C8.75 12.2203 8.60938 12.375 8.4375 12.375H2.5V17.875C2.5 20.1523 4.17969 22 6.25 22C8.32031 22 10 20.1523 10 17.875H15C15 20.1523 16.6797 22 18.75 22C20.8203 22 22.5 20.1523 22.5 17.875H24.375C24.7188 17.875 25 17.5656 25 17.1875V15.8125C25 15.4344 24.7188 15.125 24.375 15.125ZM6.25 19.9375C5.21484 19.9375 4.375 19.0137 4.375 17.875C4.375 16.7363 5.21484 15.8125 6.25 15.8125C7.28516 15.8125 8.125 16.7363 8.125 17.875C8.125 19.0137 7.28516 19.9375 6.25 19.9375ZM18.75 19.9375C17.7148 19.9375 16.875 19.0137 16.875 17.875C16.875 16.7363 17.7148 15.8125 18.75 15.8125C19.7852 15.8125 20.625 16.7363 20.625 17.875C20.625 19.0137 19.7852 19.9375 18.75 19.9375ZM21.875 11H16.25V6.1875H17.9727L21.875 10.4801V11Z" fill="#6E57CF"/>
</svg>
