<svg width="15" height="15" viewBox="0 0 15 15" fill="none" xmlns="http://www.w3.org/2000/svg">
<path d="M8.73058 3.98452C8.69249 3.99623 8.01573 4.22182 7.46202 4.84877C6.90831 4.22182 6.23155 3.99916 6.19346 3.98452C5.88292 3.88491 5.54893 4.05483 5.44639 4.3683C5.34385 4.67885 5.51377 5.01869 5.82432 5.12416C5.85655 5.13588 6.61534 5.40248 6.89366 6.19643C6.97862 6.44252 7.21007 6.5978 7.45909 6.5978C7.70225 6.5978 7.96886 6.38686 8.03624 6.19643C8.3087 5.40541 9.06163 5.13881 9.10265 5.12416C9.41612 5.02162 9.58605 4.68764 9.48644 4.37416C9.3839 4.05776 9.04698 3.88491 8.73058 3.98452Z" fill="#333333"/>
<path d="M11.9854 6.55078C12.9229 4.95996 13.2012 3.07617 12.7618 1.25098C12.6827 0.925781 12.4366 0.829102 11.9502 0.829102C11.2852 0.829102 10.6905 1.2334 10.1192 1.57324C9.48637 0.791016 8.53129 0.322266 7.50004 0.322266C6.46879 0.322266 5.51372 0.791016 4.8809 1.57617C4.30961 1.23633 3.73539 0.832031 3.04985 0.832031C2.61918 0.832031 2.3145 0.9375 2.23832 1.25098C1.79301 3.07617 2.07719 4.95996 3.01469 6.55078C3.89946 8.05078 5.27055 9.12305 6.90239 9.60352V11.9766L4.8018 10.5762C4.52641 10.3945 4.15434 10.4678 3.9727 10.7432C3.78813 11.0186 3.8643 11.3906 4.13969 11.5723L6.90239 13.4121V14.0801C6.90239 14.4111 7.16899 14.6777 7.50004 14.6777C7.8311 14.6777 8.0977 14.4111 8.0977 14.0801V13.4121L10.8604 11.5723C11.1358 11.3877 11.209 11.0186 11.0274 10.7432C10.8428 10.4678 10.4737 10.3945 10.1983 10.5762L8.0977 11.9736V9.60059C9.72954 9.12305 11.1006 8.05078 11.9854 6.55078V6.55078ZM4.04594 5.94434C3.35747 4.80762 3.10844 3.46875 3.28715 2.14453C3.78813 2.32031 4.26274 2.56641 4.69926 2.88574C4.83989 2.98828 5.0186 3.02344 5.18559 2.98535C5.35551 2.94727 5.49907 2.83594 5.57817 2.68066C5.9561 1.96289 6.69145 1.51758 7.49711 1.51758C8.30571 1.51758 9.04106 1.96289 9.41606 2.68066C9.49809 2.83301 9.64165 2.94434 9.80864 2.98535C9.97856 3.02344 10.1543 2.98828 10.295 2.88574C10.7315 2.56641 11.2061 2.32031 11.7071 2.14453C11.8858 3.46875 11.6104 4.79004 10.9483 5.94434C9.19047 9.01465 5.90922 9.02344 4.04594 5.94434V5.94434Z" fill="#333333"/>
</svg>
