<svg width="15" height="204" viewBox="0 0 15 204" fill="none" xmlns="http://www.w3.org/2000/svg">
<path d="M6.69533 63.5218L4.86449 67.4002L0.768236 68.0242C0.0336581 68.1355 -0.260734 69.0817 0.271975 69.6236L3.23552 72.6408L2.53459 76.9029C2.40842 77.6734 3.18505 78.2504 3.83552 77.8901L7.5 75.8777L11.1645 77.8901C11.8149 78.2475 12.5916 77.6734 12.4654 76.9029L11.7645 72.6408L14.728 69.6236C15.2607 69.0817 14.9663 68.1355 14.2318 68.0242L10.1355 67.4002L8.30467 63.5218C7.97664 62.8305 7.02617 62.8217 6.69533 63.5218Z" fill="#2F2F2F"/>
<path d="M6.69533 126.522L4.86449 130.4L0.768236 131.024C0.0336581 131.135 -0.260734 132.082 0.271975 132.624L3.23552 135.641L2.53459 139.903C2.40842 140.673 3.18505 141.25 3.83552 140.89L7.5 138.878L11.1645 140.89C11.8149 141.248 12.5916 140.673 12.4654 139.903L11.7645 135.641L14.728 132.624C15.2607 132.082 14.9663 131.135 14.2318 131.024L10.1355 130.4L8.30467 126.522C7.97664 125.83 7.02617 125.822 6.69533 126.522Z" fill="#F79032"/>
<path d="M6.69533 105.522L4.86449 109.4L0.768236 110.024C0.0336581 110.135 -0.260734 111.082 0.271975 111.624L3.23552 114.641L2.53459 118.903C2.40842 119.673 3.18505 120.25 3.83552 119.89L7.5 117.878L11.1645 119.89C11.8149 120.248 12.5916 119.673 12.4654 118.903L11.7645 114.641L14.728 111.624C15.2607 111.082 14.9663 110.135 14.2318 110.024L10.1355 109.4L8.30467 105.522C7.97664 104.83 7.02617 104.822 6.69533 105.522Z" fill="#F79032"/>
<path d="M6.69533 168.522L4.86449 172.4L0.768236 173.024C0.0336581 173.135 -0.260734 174.082 0.271975 174.624L3.23552 177.641L2.53459 181.903C2.40842 182.673 3.18505 183.25 3.83552 182.89L7.5 180.878L11.1645 182.89C11.8149 183.248 12.5916 182.673 12.4654 181.903L11.7645 177.641L14.728 174.624C15.2607 174.082 14.9663 173.135 14.2318 173.024L10.1355 172.4L8.30467 168.522C7.97664 167.83 7.02617 167.822 6.69533 168.522Z" fill="#F79032"/>
<path d="M6.69533 147.522L4.86449 151.4L0.768236 152.024C0.0336581 152.135 -0.260734 153.082 0.271975 153.624L3.23552 156.641L2.53459 160.903C2.40842 161.673 3.18505 162.25 3.83552 161.89L7.5 159.878L11.1645 161.89C11.8149 162.248 12.5916 161.673 12.4654 160.903L11.7645 156.641L14.728 153.624C15.2607 153.082 14.9663 152.135 14.2318 152.024L10.1355 151.4L8.30467 147.522C7.97664 146.83 7.02617 146.822 6.69533 147.522Z" fill="#F79032"/>
<path d="M6.69533 84.5218L4.86449 88.4002L0.768236 89.0242C0.0336581 89.1355 -0.260734 90.0817 0.271975 90.6236L3.23552 93.6408L2.53459 97.9029C2.40842 98.6734 3.18505 99.2504 3.83552 98.8901L7.5 96.8777L11.1645 98.8901C11.8149 99.2475 12.5916 98.6734 12.4654 97.9029L11.7645 93.6408L14.728 90.6236C15.2607 90.0817 14.9663 89.1355 14.2318 89.0242L10.1355 88.4002L8.30467 84.5218C7.97664 83.8305 7.02617 83.8217 6.69533 84.5218Z" fill="#2F2F2F"/>
<path d="M6.69533 0.521791L4.86449 4.40022L0.768236 5.02416C0.0336581 5.13548 -0.260734 6.08165 0.271975 6.62358L3.23552 9.64078L2.53459 13.9029C2.40842 14.6734 3.18505 15.2504 3.83552 14.8901L7.5 12.8777L11.1645 14.8901C11.8149 15.2475 12.5916 14.6734 12.4654 13.9029L11.7645 9.64078L14.728 6.62358C15.2607 6.08165 14.9663 5.13548 14.2318 5.02416L10.1355 4.40022L8.30467 0.521791C7.97664 -0.16953 7.02617 -0.178317 6.69533 0.521791Z" fill="#2F2F2F"/>
<path d="M6.69533 189.522L4.86449 193.4L0.768236 194.024C0.0336581 194.135 -0.260734 195.082 0.271975 195.624L3.23552 198.641L2.53459 202.903C2.40842 203.673 3.18505 204.25 3.83552 203.89L7.5 201.878L11.1645 203.89C11.8149 204.248 12.5916 203.673 12.4654 202.903L11.7645 198.641L14.728 195.624C15.2607 195.082 14.9663 194.135 14.2318 194.024L10.1355 193.4L8.30467 189.522C7.97664 188.83 7.02617 188.822 6.69533 189.522Z" fill="#F79032"/>
<path d="M6.69533 42.5218L4.86449 46.4002L0.768236 47.0242C0.0336581 47.1355 -0.260734 48.0817 0.271975 48.6236L3.23552 51.6408L2.53459 55.9029C2.40842 56.6734 3.18505 57.2504 3.83552 56.8901L7.5 54.8777L11.1645 56.8901C11.8149 57.2475 12.5916 56.6734 12.4654 55.9029L11.7645 51.6408L14.728 48.6236C15.2607 48.0817 14.9663 47.1355 14.2318 47.0242L10.1355 46.4002L8.30467 42.5218C7.97664 41.8305 7.02617 41.8217 6.69533 42.5218Z" fill="#2F2F2F"/>
<path d="M6.69533 21.5218L4.86449 25.4002L0.768236 26.0242C0.0336581 26.1355 -0.260734 27.0817 0.271975 27.6236L3.23552 30.6408L2.53459 34.9029C2.40842 35.6734 3.18505 36.2504 3.83552 35.8901L7.5 33.8777L11.1645 35.8901C11.8149 36.2475 12.5916 35.6734 12.4654 34.9029L11.7645 30.6408L14.728 27.6236C15.2607 27.0817 14.9663 26.1355 14.2318 26.0242L10.1355 25.4002L8.30467 21.5218C7.97664 20.8305 7.02617 20.8217 6.69533 21.5218Z" fill="#2F2F2F"/>
</svg>
