<svg width="220" height="18" viewBox="0 0 220 18" fill="none" xmlns="http://www.w3.org/2000/svg">
<path fill-rule="evenodd" clip-rule="evenodd" d="M99.1471 1.38363L101.145 6.35613L106.263 6.81851C106.618 6.85113 106.763 7.31576 106.494 7.56101L102.612 11.0958L103.775 16.354C103.856 16.7185 103.479 17.0065 103.174 16.8119L98.7756 14.0253L94.3779 16.8119C94.0726 17.0054 93.6965 16.7185 93.7773 16.354L94.9402 11.0958L91.0577 7.56101C90.7883 7.31576 90.9319 6.85001 91.2878 6.81851L96.4061 6.35613L98.4041 1.38363C98.4322 1.30759 98.4829 1.24199 98.5493 1.19567C98.6157 1.14934 98.6947 1.12451 98.7756 1.12451C98.8565 1.12451 98.9355 1.14934 99.0019 1.19567C99.0684 1.24199 99.119 1.30759 99.1471 1.38363V1.38363ZM9.35122 1.38363L11.3492 6.35613L16.4675 6.81851C16.8222 6.85113 16.967 7.31576 16.6977 7.56101L12.8162 11.0958L13.9791 16.354C14.0599 16.7185 13.6828 17.0065 13.3774 16.8119L8.97969 14.0253L4.58194 16.8119C4.27663 17.0054 3.90061 16.7185 3.98143 16.354L5.14428 11.0958L1.26285 7.56101C0.993466 7.31576 1.13602 6.85001 1.49183 6.81851L6.6102 6.35613L8.60816 1.38363C8.63628 1.30759 8.68696 1.24199 8.75338 1.19567C8.81979 1.14934 8.89877 1.12451 8.97969 1.12451C9.06061 1.12451 9.13959 1.14934 9.20601 1.19567C9.27243 1.24199 9.3231 1.30759 9.35122 1.38363V1.38363ZM31.8002 1.38363L33.7982 6.35613L38.9165 6.81851C39.2712 6.85113 39.416 7.31576 39.1466 7.56101L35.2652 11.0958L36.4281 16.354C36.5089 16.7185 36.1317 17.0065 35.8276 16.8119L31.4287 14.0253L27.0309 16.8119C26.7256 17.0054 26.3496 16.7185 26.4304 16.354L27.5933 11.0958L23.7118 7.56101C23.4424 7.31576 23.585 6.85001 23.9408 6.81851L29.0592 6.35613L31.0571 1.38363C31.0853 1.30759 31.1359 1.24199 31.2024 1.19567C31.2688 1.14934 31.3478 1.12451 31.4287 1.12451C31.5096 1.12451 31.5886 1.14934 31.655 1.19567C31.7214 1.24199 31.7721 1.30759 31.8002 1.38363V1.38363ZM54.2492 1.38363L56.2471 6.35613L61.3655 6.81851C61.7202 6.85113 61.865 7.31576 61.5956 7.56101L57.7142 11.0958L58.877 16.354C58.9579 16.7185 58.5807 17.0065 58.2765 16.8119L53.8777 14.0253L49.4799 16.8119C49.1746 17.0054 48.7986 16.7185 48.8794 16.354L50.0422 11.0958L46.1597 7.56101C45.8903 7.31576 46.034 6.85001 46.3898 6.81851L51.5082 6.35613L53.5061 1.38363C53.5342 1.30759 53.5849 1.24199 53.6513 1.19567C53.7178 1.14934 53.7967 1.12451 53.8777 1.12451C53.9586 1.12451 54.0375 1.14934 54.104 1.19567C54.1704 1.24199 54.2211 1.30759 54.2492 1.38363V1.38363ZM76.6982 1.38363L78.6961 6.35613L83.8145 6.81851C84.1692 6.85113 84.314 7.31576 84.0446 7.56101L80.1632 11.0958L81.326 16.354C81.4068 16.7185 81.0297 17.0065 80.7255 16.8119L76.3266 14.0253L71.9289 16.8119C71.6236 17.0054 71.2476 16.7185 71.3284 16.354L72.4912 11.0958L68.6087 7.56101C68.3393 7.31576 68.483 6.85001 68.8388 6.81851L73.9571 6.35613L75.9551 1.38363C75.9832 1.30759 76.0339 1.24199 76.1003 1.19567C76.1667 1.14934 76.2457 1.12451 76.3266 1.12451C76.4075 1.12451 76.4865 1.14934 76.553 1.19567C76.6194 1.24199 76.67 1.30759 76.6982 1.38363V1.38363Z" fill="#6E57CF" stroke="#6E57CF"/>
<path d="M211.392 1.38363L213.391 6.35613L218.508 6.81851C218.863 6.85113 219.008 7.31576 218.738 7.56101L214.857 11.0958L216.02 16.354C216.101 16.7185 215.724 17.0065 215.418 16.8119L211.02 14.0253L206.623 16.8119C206.317 17.0054 205.941 16.7185 206.022 16.354L207.185 11.0958L203.304 7.56101C203.034 7.31576 203.177 6.85001 203.533 6.81851L208.65 6.35613L210.649 1.38363C210.677 1.30759 210.728 1.24199 210.794 1.19567C210.861 1.14934 210.94 1.12451 211.02 1.12451C211.101 1.12451 211.18 1.14934 211.247 1.19567C211.313 1.24199 211.364 1.30759 211.392 1.38363V1.38363ZM121.596 1.38363L123.595 6.35613L128.712 6.81851C129.067 6.85113 129.212 7.31576 128.943 7.56101L125.061 11.0958L126.224 16.354C126.305 16.7185 125.928 17.0065 125.622 16.8119L121.225 14.0253L116.827 16.8119C116.522 17.0054 116.145 16.7185 116.226 16.354L117.389 11.0958L113.508 7.56101C113.238 7.31576 113.381 6.85001 113.737 6.81851L118.854 6.35613L120.853 1.38363C120.881 1.30759 120.932 1.24199 120.998 1.19567C121.065 1.14934 121.144 1.12451 121.225 1.12451C121.305 1.12451 121.384 1.14934 121.451 1.19567C121.517 1.24199 121.568 1.30759 121.596 1.38363V1.38363ZM144.045 1.38363L146.044 6.35613L151.161 6.81851C151.516 6.85113 151.661 7.31576 151.392 7.56101L147.51 11.0958L148.673 16.354C148.754 16.7185 148.377 17.0065 148.071 16.8119L143.674 14.0253L139.276 16.8119C138.97 17.0054 138.594 16.7185 138.675 16.354L139.838 11.0958L135.957 7.56101C135.687 7.31576 135.83 6.85001 136.186 6.81851L141.303 6.35613L143.302 1.38363C143.33 1.30759 143.381 1.24199 143.447 1.19567C143.514 1.14934 143.593 1.12451 143.674 1.12451C143.754 1.12451 143.833 1.14934 143.9 1.19567C143.966 1.24199 144.017 1.30759 144.045 1.38363V1.38363ZM166.494 1.38363L168.493 6.35613L173.61 6.81851C173.965 6.85113 174.11 7.31576 173.84 7.56101L169.959 11.0958L171.122 16.354C171.203 16.7185 170.826 17.0065 170.52 16.8119L166.123 14.0253L161.725 16.8119C161.419 17.0054 161.043 16.7185 161.124 16.354L162.287 11.0958L158.406 7.56101C158.136 7.31576 158.279 6.85001 158.635 6.81851L163.752 6.35613L165.751 1.38363C165.779 1.30759 165.83 1.24199 165.896 1.19567C165.963 1.14934 166.042 1.12451 166.123 1.12451C166.203 1.12451 166.282 1.14934 166.349 1.19567C166.415 1.24199 166.466 1.30759 166.494 1.38363V1.38363ZM188.943 1.38363L190.942 6.35613L196.059 6.81851C196.414 6.85113 196.559 7.31576 196.289 7.56101L192.408 11.0958L193.571 16.354C193.652 16.7185 193.275 17.0065 192.969 16.8119L188.571 14.0253L184.174 16.8119C183.868 17.0054 183.492 16.7185 183.573 16.354L184.736 11.0958L180.855 7.56101C180.585 7.31576 180.728 6.85001 181.084 6.81851L186.201 6.35613L188.2 1.38363C188.228 1.30759 188.279 1.24199 188.345 1.19567C188.412 1.14934 188.491 1.12451 188.571 1.12451C188.652 1.12451 188.731 1.14934 188.798 1.19567C188.864 1.24199 188.915 1.30759 188.943 1.38363V1.38363Z" stroke="#6E57CF"/>
</svg>
